# xmcd CD database file
# Copyright (C) 1993-1997  Ti Kan
#
# Track frame offsets:
#	150
#	13250
#	30452
#	45110
#	59875
#	80640
#	94280
#	113892
#	125870
#	147347
#	166515
#	184307
#	199420
#	219992
#	239957
#	257690
#
# Disc length: 3631 seconds
#
# Revision: 1
# Processed by: cddbd v1.4b41PL1 Copyright (c) Steve Scherf et al.
# Submitted via: xmcd 2.1 PL2
#
DISCID=f10e2d10
DTITLE=Big Joe Louis And His Blues Kings - Big Sixteen
DYEAR=1900
DGENRE=
TTITLE0=She Was All The World To Me
TTITLE1=Back Door Slam
TTITLE2=Chistmas Eve 1993
TTITLE3=3 - 6 - 9
TTITLE4=I've Got To Be More Selective
TTITLE5=The Way I Feel For You
TTITLE6=Another Married Woman
TTITLE7=Rock 'n' Roll Baby
TTITLE8=Catfish
TTITLE9=Ella Mae
TTITLE10=Down Jamaica Way
TTITLE11=I Can Tell
TTITLE12=Wine Head
TTITLE13=I Took Care Of My Homework (But Jody Got My Girl And Gone)
TTITLE14=Treat Your Daddy Right
TTITLE15=Leaving On My Mind
EXTD=
EXTT0=
EXTT1=
EXTT2=
EXTT3=
EXTT4=
EXTT5=
EXTT6=
EXTT7=
EXTT8=
EXTT9=
EXTT10=
EXTT11=
EXTT12=
EXTT13=
EXTT14=
EXTT15=
PLAYORDER=
